<?xml version="1.0" encoding="UTF-8" standalone="no"?>
<!-- Created with Inkscape (http://www.inkscape.org/) -->

<svg
   xmlns:dc="http://purl.org/dc/elements/1.1/"
   xmlns:cc="http://creativecommons.org/ns#"
   xmlns:rdf="http://www.w3.org/1999/02/22-rdf-syntax-ns#"
   xmlns:svg="http://www.w3.org/2000/svg"
   xmlns="http://www.w3.org/2000/svg"
   xmlns:sodipodi="http://sodipodi.sourceforge.net/DTD/sodipodi-0.dtd"
   xmlns:inkscape="http://www.inkscape.org/namespaces/inkscape"
   width="150.00833mm"
   height="21.40797mm"
   viewBox="0 0 150.00833 21.40797"
   version="1.1"
   id="svg8"
   inkscape:version="0.92.3 (2405546, 2018-03-11)"
   sodipodi:docname="load-exposure-message.svg">
  <defs
     id="defs2" />
  <sodipodi:namedview
     id="base"
     pagecolor="#ffffff"
     bordercolor="#666666"
     borderopacity="1.0"
     inkscape:pageopacity="0.0"
     inkscape:pageshadow="2"
     inkscape:zoom="1"
     inkscape:cx="-272.11562"
     inkscape:cy="315.23954"
     inkscape:document-units="mm"
     inkscape:current-layer="layer1"
     showgrid="false"
     inkscape:window-width="2506"
     inkscape:window-height="1376"
     inkscape:window-x="0"
     inkscape:window-y="27"
     inkscape:window-maximized="1"
     fit-margin-top="0"
     fit-margin-left="0"
     fit-margin-right="0"
     fit-margin-bottom="0" />
  <metadata
     id="metadata5">
    <rdf:RDF>
      <cc:Work
         rdf:about="">
        <dc:format>image/svg+xml</dc:format>
        <dc:type
           rdf:resource="http://purl.org/dc/dcmitype/StillImage" />
        <dc:title></dc:title>
      </cc:Work>
    </rdf:RDF>
  </metadata>
  <g
     inkscape:label="Layer 1"
     inkscape:groupmode="layer"
     id="layer1"
     style="display:inline"
     transform="translate(-29.663924,-200.24916)">
    <flowRoot
       xml:space="preserve"
       id="flowRoot815"
       style="font-style:normal;font-variant:normal;font-weight:normal;font-stretch:normal;font-size:40px;line-height:1.25;font-family:'DejaVu Serif';-inkscape-font-specification:'DejaVu Serif';letter-spacing:0px;word-spacing:0px;fill:#000000;fill-opacity:0;stroke:none"
       transform="scale(0.26458333)"><flowRegion
         id="flowRegion817"
         style="font-style:normal;font-variant:normal;font-weight:normal;font-stretch:normal;font-family:'DejaVu Serif';-inkscape-font-specification:'DejaVu Serif';fill:#000000;fill-opacity:0"><rect
           id="rect819"
           width="430"
           height="514"
           x="191"
           y="305.51968"
           style="font-style:normal;font-variant:normal;font-weight:normal;font-stretch:normal;font-family:'DejaVu Serif';-inkscape-font-specification:'DejaVu Serif';fill:#000000;fill-opacity:0" /></flowRegion><flowPara
         id="flowPara821" /></flowRoot>    <g
       aria-label="No Exposures are Loaded.
Press Ctrl+E to get started"
       transform="scale(1,-1)"
       style="font-style:normal;font-weight:normal;font-size:10.58333302px;line-height:1.25;font-family:sans-serif;text-align:center;letter-spacing:0px;word-spacing:0px;text-anchor:middle;fill:#f9ffff;fill-opacity:1;stroke:none;stroke-width:0.26458332"
       id="text825">
      <path
         d="m 31.579507,-219.22296 v 3.1115 h 0.370417 q 0.6985,0 0.6985,0.52916 0,0.52917 -0.6985,0.52917 h -1.36525 q -0.709083,0 -0.709083,-0.52917 0,-0.52916 0.645583,-0.52916 v -4.05342 h -0.15875 q -0.6985,0 -0.6985,-0.52917 0,-0.52916 0.6985,-0.52916 h 1.217083 l 2.7305,4.14866 v -3.09033 h -0.370416 q -0.6985,0 -0.6985,-0.52917 0,-0.52916 0.6985,-0.52916 h 1.375833 q 0.6985,0 0.6985,0.52916 0,0.52917 -0.645583,0.52917 v 5.11175 h -1.04775 z"
         style="font-style:normal;font-variant:normal;font-weight:bold;font-stretch:normal;font-family:'Tlwg Mono';-inkscape-font-specification:'Tlwg Mono Bold';text-align:center;text-anchor:middle;fill:#f9ffff;fill-opacity:1;stroke-width:0.26458332"
         id="path1116"
         inkscape:connector-curvature="0" />
      <path
         d="m 39.301206,-219.81563 q 1.121834,0 1.905,0.71967 0.79375,0.71966 0.79375,1.74625 0,1.03716 -0.79375,1.75683 -0.79375,0.70908 -1.93675,0.70908 -1.142999,0 -1.936749,-0.70908 -0.79375,-0.71967 -0.79375,-1.75683 0,-1.04775 0.79375,-1.75684 0.79375,-0.70908 1.968499,-0.70908 z m -0.01058,1.05833 q -0.719666,0 -1.2065,0.40217 -0.486833,0.40217 -0.486833,1.00542 0,0.59266 0.47625,1.00541 0.486833,0.40217 1.195916,0.40217 0.709084,0 1.185334,-0.40217 0.486833,-0.41275 0.486833,-1.00541 0,-0.59267 -0.486833,-0.99484 -0.47625,-0.41275 -1.164167,-0.41275 z"
         style="font-style:normal;font-variant:normal;font-weight:bold;font-stretch:normal;font-family:'Tlwg Mono';-inkscape-font-specification:'Tlwg Mono Bold';text-align:center;text-anchor:middle;fill:#f9ffff;fill-opacity:1;stroke-width:0.26458332"
         id="path1118"
         inkscape:connector-curvature="0" />
      <path
         d="m 52.257522,-219.4558 q 0.529166,0 0.529166,0.70909 v 1.19591 q 0,0.6985 -0.518583,0.6985 -0.529167,0 -0.529167,-0.6985 v -0.0741 h -0.899583 v 1.51342 h 2.709333 v -0.55034 q 0,-0.70908 0.529167,-0.70908 0.529167,0 0.529167,0.70908 v 1.60867 h -4.98475 q -0.6985,0 -0.6985,-0.52917 0,-0.52916 0.6985,-0.52916 h 0.15875 v -4.05342 h -0.15875 q -0.6985,0 -0.6985,-0.52917 0,-0.52916 0.6985,-0.52916 h 4.751916 v 1.5875 q 0,0.70908 -0.529166,0.70908 -0.529167,0 -0.529167,-0.70908 v -0.52917 h -2.4765 v 1.49225 h 0.899583 v -0.0741 q 0,-0.70909 0.518584,-0.70909 z"
         style="font-style:normal;font-variant:normal;font-weight:bold;font-stretch:normal;font-family:'Tlwg Mono';-inkscape-font-specification:'Tlwg Mono Bold';text-align:center;text-anchor:middle;fill:#f9ffff;fill-opacity:1;stroke-width:0.26458332"
         id="path1120"
         inkscape:connector-curvature="0" />
      <path
         d="m 58.666887,-219.1383 q 0,-0.53975 0.6985,-0.53975 h 0.963083 q 0.709084,0 0.709084,0.52917 0,0.23283 -0.148167,0.381 -0.148167,0.14817 -0.41275,0.14817 l -1.397,1.16416 1.608667,1.34409 q 0.264583,0 0.41275,0.14816 0.15875,0.13759 0.15875,0.381 0,0.52917 -0.6985,0.52917 H 59.37597 q -0.709083,0 -0.709083,-0.53975 0,-0.40217 0.423333,-0.51858 l -0.79375,-0.64559 -0.772583,0.64559 q 0.402167,0.16933 0.402167,0.51858 0,0.53975 -0.6985,0.53975 h -1.17475 q -0.6985,0 -0.6985,-0.52917 0,-0.24341 0.148166,-0.381 0.15875,-0.14816 0.423334,-0.14816 l 1.534583,-1.35467 -1.354667,-1.15358 q -0.254,0 -0.402166,-0.14817 -0.148167,-0.14817 -0.148167,-0.381 0,-0.52917 0.6985,-0.52917 h 0.973667 q 0.6985,0 0.6985,0.51859 0,0.30691 -0.275167,0.48683 l 0.645583,0.51858 0.645584,-0.52916 q -0.275167,-0.1905 -0.275167,-0.45509 z"
         style="font-style:normal;font-variant:normal;font-weight:bold;font-stretch:normal;font-family:'Tlwg Mono';-inkscape-font-specification:'Tlwg Mono Bold';text-align:center;text-anchor:middle;fill:#f9ffff;fill-opacity:1;stroke-width:0.26458332"
         id="path1122"
         inkscape:connector-curvature="0" />
      <path
         d="m 63.319419,-215.75163 v 1.80975 h 0.613833 q 0.6985,0 0.6985,0.52917 0,0.52916 -0.6985,0.52916 h -1.8415 q -0.6985,0 -0.6985,-0.52916 0,-0.52917 0.6985,-0.52917 h 0.169334 v -4.67783 h -0.169334 q -0.6985,0 -0.6985,-0.52917 0,-0.52917 0.6985,-0.52917 h 1.227667 v 0.47625 q 0.719667,-0.61383 1.61925,-0.61383 1.11125,0 1.8415,0.68792 0.740833,0.67733 0.740833,1.70391 0,0.97367 -0.73025,1.61925 -0.73025,0.64559 -1.830916,0.64559 -0.867834,0 -1.640417,-0.59267 z m 3.14325,-1.73567 q 0,-0.45508 -0.391583,-0.85725 -0.381,-0.41275 -1.17475,-0.41275 -0.814917,0 -1.195917,0.41275 -0.381,0.41275 -0.381,0.84667 0,0.56092 0.433917,0.92075 0.4445,0.35983 1.143,0.35983 0.687916,0 1.121833,-0.35983 0.4445,-0.35983 0.4445,-0.91017 z"
         style="font-style:normal;font-variant:normal;font-weight:bold;font-stretch:normal;font-family:'Tlwg Mono';-inkscape-font-specification:'Tlwg Mono Bold';text-align:center;text-anchor:middle;fill:#f9ffff;fill-opacity:1;stroke-width:0.26458332"
         id="path1124"
         inkscape:connector-curvature="0" />
      <path
         d="m 71.030536,-219.81563 q 1.121833,0 1.905,0.71967 0.79375,0.71966 0.79375,1.74625 0,1.03716 -0.79375,1.75683 -0.79375,0.70908 -1.93675,0.70908 -1.143,0 -1.93675,-0.70908 -0.79375,-0.71967 -0.79375,-1.75683 0,-1.04775 0.79375,-1.75684 0.79375,-0.70908 1.9685,-0.70908 z m -0.01058,1.05833 q -0.719667,0 -1.2065,0.40217 -0.486834,0.40217 -0.486834,1.00542 0,0.59266 0.47625,1.00541 0.486834,0.40217 1.195917,0.40217 0.709083,0 1.185333,-0.40217 0.486834,-0.41275 0.486834,-1.00541 0,-0.59267 -0.486834,-0.99484 -0.47625,-0.41275 -1.164166,-0.41275 z"
         style="font-style:normal;font-variant:normal;font-weight:bold;font-stretch:normal;font-family:'Tlwg Mono';-inkscape-font-specification:'Tlwg Mono Bold';text-align:center;text-anchor:middle;fill:#f9ffff;fill-opacity:1;stroke-width:0.26458332"
         id="path1126"
         inkscape:connector-curvature="0" />
      <path
         d="m 75.481983,-215.06371 q -0.53975,0 -0.53975,-0.6985 v -0.34925 q 0,-0.70909 0.53975,-0.70909 0.402166,0 0.53975,0.46567 0.455083,0.41275 1.322916,0.41275 0.508,0 0.867834,-0.13758 0.370416,-0.13759 0.370416,-0.3175 0,-0.41275 -1.3335,-0.55034 -1.11125,-0.11641 -1.608666,-0.45508 -0.497417,-0.33867 -0.497417,-0.96308 0,-0.635 0.613833,-1.03717 0.613834,-0.41275 1.566334,-0.41275 0.772583,0 1.36525,0.27517 0.116416,-0.27517 0.338666,-0.27517 0.497417,0 0.497417,0.6985 v 0.39158 q 0,0.6985 -0.529167,0.6985 -0.306916,0 -0.550333,-0.42333 -0.433917,-0.30692 -1.090083,-0.30692 -0.402167,0 -0.73025,0.11642 -0.3175,0.10583 -0.3175,0.254 0,0.16933 0.243416,0.24342 0.243417,0.0741 0.772584,0.14816 0.0635,0.0106 0.09525,0.0106 0.391583,0.0529 0.66675,0.11641 0.28575,0.0529 0.624416,0.17992 0.338667,0.11642 0.53975,0.28575 0.211667,0.15875 0.34925,0.42333 0.148167,0.26459 0.148167,0.60325 0,0.64559 -0.66675,1.06892 -0.66675,0.42333 -1.693333,0.42333 -0.92075,0 -1.566334,-0.30691 -0.15875,0.127 -0.338666,0.127 z"
         style="font-style:normal;font-variant:normal;font-weight:bold;font-stretch:normal;font-family:'Tlwg Mono';-inkscape-font-specification:'Tlwg Mono Bold';text-align:center;text-anchor:middle;fill:#f9ffff;fill-opacity:1;stroke-width:0.26458332"
         id="path1128"
         inkscape:connector-curvature="0" />
      <path
         d="m 83.404767,-214.91555 q -0.836084,0 -1.36525,-0.46566 -0.518584,-0.47625 -0.518584,-1.32292 v -1.91558 h -0.28575 q -0.264583,0 -0.423333,-0.14817 -0.15875,-0.14817 -0.15875,-0.381 0,-0.52917 0.6985,-0.52917 h 1.227667 v 2.94217 q 0,0.762 0.931333,0.762 0.402167,0 0.66675,-0.13758 0.264583,-0.14817 0.677333,-0.58209 v -1.92616 h -0.370416 q -0.3175,0 -0.508,-0.127 -0.1905,-0.13759 -0.1905,-0.40217 0,-0.52917 0.6985,-0.52917 h 1.428749 v 3.56659 q 0.645584,0 0.645584,0.52916 0,0.52917 -0.6985,0.52917 h -1.005417 v -0.508 q -0.391583,0.37042 -0.709083,0.508 -0.306917,0.13758 -0.740833,0.13758 z"
         style="font-style:normal;font-variant:normal;font-weight:bold;font-stretch:normal;font-family:'Tlwg Mono';-inkscape-font-specification:'Tlwg Mono Bold';text-align:center;text-anchor:middle;fill:#f9ffff;fill-opacity:1;stroke-width:0.26458332"
         id="path1130"
         inkscape:connector-curvature="0" />
      <path
         d="m 92.3753,-218.36571 q -0.1905,0 -0.41275,-0.1905 -0.211666,-0.1905 -0.41275,-0.1905 -0.254,0 -0.624416,0.23283 -0.359834,0.22225 -1.121834,0.84667 v 1.55575 h 1.471084 q 0.709083,0 0.709083,0.52916 0,0.52917 -0.709083,0.52917 h -3.14325 q -0.6985,0 -0.6985,-0.52917 0,-0.52916 0.6985,-0.52916 h 0.613833 v -2.50825 H 88.3748 q -0.6985,0 -0.6985,-0.52917 0,-0.52917 0.6985,-0.52917 h 1.42875 v 0.68792 q 0.635,-0.47625 1.005417,-0.64558 0.370417,-0.16934 0.762,-0.16934 0.402167,0 0.867833,0.27517 0.465667,0.26458 0.465667,0.62442 0,0.22225 -0.15875,0.381 -0.15875,0.15875 -0.370417,0.15875 z"
         style="font-style:normal;font-variant:normal;font-weight:bold;font-stretch:normal;font-family:'Tlwg Mono';-inkscape-font-specification:'Tlwg Mono Bold';text-align:center;text-anchor:middle;fill:#f9ffff;fill-opacity:1;stroke-width:0.26458332"
         id="path1132"
         inkscape:connector-curvature="0" />
      <path
         d="m 96.445747,-215.94213 q 0.560917,0 1.248833,-0.16933 0.687917,-0.17992 0.8255,-0.17992 0.211667,0 0.359834,0.15875 0.148166,0.14817 0.148166,0.37042 0,0.30691 -0.370416,0.47625 -0.359834,0.15875 -1.058334,0.27516 -0.687916,0.127 -1.248833,0.127 -1.227667,0 -2.010833,-0.68791 -0.783167,-0.68792 -0.783167,-1.76742 0,-1.04775 0.783167,-1.75683 0.79375,-0.71967 1.947333,-0.71967 1.185333,0 1.957917,0.71967 0.783166,0.71966 0.783166,1.80975 v 0.41275 h -4.318 q 0.359834,0.93133 1.735667,0.93133 z m -1.703917,-1.86267 h 3.1115 q -0.127,-0.43391 -0.550333,-0.68791 -0.423333,-0.26459 -1.005417,-0.26459 -0.582083,0 -1.016,0.26459 -0.423333,0.26458 -0.53975,0.68791 z"
         style="font-style:normal;font-variant:normal;font-weight:bold;font-stretch:normal;font-family:'Tlwg Mono';-inkscape-font-specification:'Tlwg Mono Bold';text-align:center;text-anchor:middle;fill:#f9ffff;fill-opacity:1;stroke-width:0.26458332"
         id="path1134"
         inkscape:connector-curvature="0" />
      <path
         d="m 100.86544,-215.06371 q -0.53975,0 -0.53975,-0.6985 v -0.34925 q 0,-0.70909 0.53975,-0.70909 0.40217,0 0.53975,0.46567 0.45509,0.41275 1.32292,0.41275 0.508,0 0.86783,-0.13758 0.37042,-0.13759 0.37042,-0.3175 0,-0.41275 -1.3335,-0.55034 -1.11125,-0.11641 -1.60867,-0.45508 -0.49741,-0.33867 -0.49741,-0.96308 0,-0.635 0.61383,-1.03717 0.61383,-0.41275 1.56633,-0.41275 0.77259,0 1.36525,0.27517 0.11642,-0.27517 0.33867,-0.27517 0.49742,0 0.49742,0.6985 v 0.39158 q 0,0.6985 -0.52917,0.6985 -0.30692,0 -0.55033,-0.42333 -0.43392,-0.30692 -1.09009,-0.30692 -0.40216,0 -0.73025,0.11642 -0.3175,0.10583 -0.3175,0.254 0,0.16933 0.24342,0.24342 0.24342,0.0741 0.77258,0.14816 0.0635,0.0106 0.0952,0.0106 0.39159,0.0529 0.66675,0.11641 0.28575,0.0529 0.62442,0.17992 0.33867,0.11642 0.53975,0.28575 0.21167,0.15875 0.34925,0.42333 0.14817,0.26459 0.14817,0.60325 0,0.64559 -0.66675,1.06892 -0.66675,0.42333 -1.69334,0.42333 -0.92075,0 -1.56633,-0.30691 -0.15875,0.127 -0.33867,0.127 z"
         style="font-style:normal;font-variant:normal;font-weight:bold;font-stretch:normal;font-family:'Tlwg Mono';-inkscape-font-specification:'Tlwg Mono Bold';text-align:center;text-anchor:middle;fill:#f9ffff;fill-opacity:1;stroke-width:0.26458332"
         id="path1136"
         inkscape:connector-curvature="0" />
      <path
         d="m 115.36693,-218.7573 q -0.42334,0 -0.98425,0.127 -0.55034,0.11642 -0.66675,0.11642 -0.22225,0 -0.37042,-0.14817 -0.14817,-0.15875 -0.14817,-0.39158 0,-0.33867 0.3175,-0.4445 0.89959,-0.3175 1.82034,-0.3175 0.97366,0 1.524,0.41275 0.56091,0.41275 0.56091,1.15358 v 2.13784 h 0.16934 q 0.6985,0 0.6985,0.52916 0,0.52917 -0.6985,0.52917 h -1.23825 v -0.24342 q -0.79375,0.41275 -1.75684,0.41275 -0.78316,0 -1.34408,-0.41275 -0.56092,-0.42333 -0.56092,-1.016 0,-0.68791 0.67734,-1.23825 0.68791,-0.55033 1.88383,-0.55033 0.47625,0 1.10067,0.10583 v -0.24341 q 0,-0.51859 -0.98425,-0.51859 z m 0.99483,2.27542 v -0.52917 q -0.66675,-0.11641 -1.17475,-0.11641 -0.53975,0 -0.96308,0.23283 -0.41275,0.23283 -0.41275,0.53975 0,0.17992 0.23283,0.29633 0.23283,0.11642 0.5715,0.11642 0.86783,0 1.74625,-0.53975 z"
         style="font-style:normal;font-variant:normal;font-weight:bold;font-stretch:normal;font-family:'Tlwg Mono';-inkscape-font-specification:'Tlwg Mono Bold';text-align:center;text-anchor:middle;fill:#f9ffff;fill-opacity:1;stroke-width:0.26458332"
         id="path1138"
         inkscape:connector-curvature="0" />
      <path
         d="m 124.10462,-218.36571 q -0.1905,0 -0.41275,-0.1905 -0.21166,-0.1905 -0.41275,-0.1905 -0.254,0 -0.62441,0.23283 -0.35984,0.22225 -1.12184,0.84667 v 1.55575 h 1.47109 q 0.70908,0 0.70908,0.52916 0,0.52917 -0.70908,0.52917 h -3.14325 q -0.6985,0 -0.6985,-0.52917 0,-0.52916 0.6985,-0.52916 h 0.61383 v -2.50825 h -0.37042 q -0.6985,0 -0.6985,-0.52917 0,-0.52917 0.6985,-0.52917 h 1.42875 v 0.68792 q 0.635,-0.47625 1.00542,-0.64558 0.37042,-0.16934 0.762,-0.16934 0.40217,0 0.86783,0.27517 0.46567,0.26458 0.46567,0.62442 0,0.22225 -0.15875,0.381 -0.15875,0.15875 -0.37042,0.15875 z"
         style="font-style:normal;font-variant:normal;font-weight:bold;font-stretch:normal;font-family:'Tlwg Mono';-inkscape-font-specification:'Tlwg Mono Bold';text-align:center;text-anchor:middle;fill:#f9ffff;fill-opacity:1;stroke-width:0.26458332"
         id="path1140"
         inkscape:connector-curvature="0" />
      <path
         d="m 128.17508,-215.94213 q 0.56092,0 1.24883,-0.16933 0.68792,-0.17992 0.8255,-0.17992 0.21167,0 0.35984,0.15875 0.14816,0.14817 0.14816,0.37042 0,0.30691 -0.37041,0.47625 -0.35984,0.15875 -1.05834,0.27516 -0.68791,0.127 -1.24883,0.127 -1.22767,0 -2.01083,-0.68791 -0.78317,-0.68792 -0.78317,-1.76742 0,-1.04775 0.78317,-1.75683 0.79375,-0.71967 1.94733,-0.71967 1.18533,0 1.95792,0.71967 0.78316,0.71966 0.78316,1.80975 v 0.41275 h -4.318 q 0.35984,0.93133 1.73567,0.93133 z m -1.70392,-1.86267 h 3.1115 q -0.127,-0.43391 -0.55033,-0.68791 -0.42333,-0.26459 -1.00542,-0.26459 -0.58208,0 -1.016,0.26459 -0.42333,0.26458 -0.53975,0.68791 z"
         style="font-style:normal;font-variant:normal;font-weight:bold;font-stretch:normal;font-family:'Tlwg Mono';-inkscape-font-specification:'Tlwg Mono Bold';text-align:center;text-anchor:middle;fill:#f9ffff;fill-opacity:1;stroke-width:0.26458332"
         id="path1142"
         inkscape:connector-curvature="0" />
      <path
         d="m 138.67606,-215.05313 q -0.6985,0 -0.6985,-0.52917 0,-0.52916 0.6985,-0.52916 h 0.60325 v -4.05342 h -0.60325 q -0.6985,0 -0.6985,-0.52917 0,-0.52916 0.6985,-0.52916 h 2.26483 q 0.6985,0 0.6985,0.52916 0,0.52917 -0.6985,0.52917 h -0.60325 v 4.05342 h 2.27542 v -0.97367 q 0,-0.70908 0.52916,-0.70908 0.52917,0 0.52917,0.70908 v 2.032 z"
         style="font-style:normal;font-variant:normal;font-weight:bold;font-stretch:normal;font-family:'Tlwg Mono';-inkscape-font-specification:'Tlwg Mono Bold';text-align:center;text-anchor:middle;fill:#f9ffff;fill-opacity:1;stroke-width:0.26458332"
         id="path1144"
         inkscape:connector-curvature="0" />
      <path
         d="m 147.18093,-219.81563 q 1.12183,0 1.905,0.71967 0.79375,0.71966 0.79375,1.74625 0,1.03716 -0.79375,1.75683 -0.79375,0.70908 -1.93675,0.70908 -1.143,0 -1.93675,-0.70908 -0.79375,-0.71967 -0.79375,-1.75683 0,-1.04775 0.79375,-1.75684 0.79375,-0.70908 1.9685,-0.70908 z m -0.0106,1.05833 q -0.71966,0 -1.2065,0.40217 -0.48683,0.40217 -0.48683,1.00542 0,0.59266 0.47625,1.00541 0.48683,0.40217 1.19592,0.40217 0.70908,0 1.18533,-0.40217 0.48683,-0.41275 0.48683,-1.00541 0,-0.59267 -0.48683,-0.99484 -0.47625,-0.41275 -1.16417,-0.41275 z"
         style="font-style:normal;font-variant:normal;font-weight:bold;font-stretch:normal;font-family:'Tlwg Mono';-inkscape-font-specification:'Tlwg Mono Bold';text-align:center;text-anchor:middle;fill:#f9ffff;fill-opacity:1;stroke-width:0.26458332"
         id="path1146"
         inkscape:connector-curvature="0" />
      <path
         d="m 153.44212,-218.7573 q -0.42333,0 -0.98425,0.127 -0.55033,0.11642 -0.66675,0.11642 -0.22225,0 -0.37041,-0.14817 -0.14817,-0.15875 -0.14817,-0.39158 0,-0.33867 0.3175,-0.4445 0.89958,-0.3175 1.82033,-0.3175 0.97367,0 1.524,0.41275 0.56092,0.41275 0.56092,1.15358 v 2.13784 h 0.16933 q 0.6985,0 0.6985,0.52916 0,0.52917 -0.6985,0.52917 h -1.23825 v -0.24342 q -0.79375,0.41275 -1.75683,0.41275 -0.78317,0 -1.34408,-0.41275 -0.56092,-0.42333 -0.56092,-1.016 0,-0.68791 0.67733,-1.23825 0.68792,-0.55033 1.88384,-0.55033 0.47625,0 1.10066,0.10583 v -0.24341 q 0,-0.51859 -0.98425,-0.51859 z m 0.99484,2.27542 v -0.52917 q -0.66675,-0.11641 -1.17475,-0.11641 -0.53975,0 -0.96309,0.23283 -0.41275,0.23283 -0.41275,0.53975 0,0.17992 0.23284,0.29633 0.23283,0.11642 0.5715,0.11642 0.86783,0 1.74625,-0.53975 z"
         style="font-style:normal;font-variant:normal;font-weight:bold;font-stretch:normal;font-family:'Tlwg Mono';-inkscape-font-specification:'Tlwg Mono Bold';text-align:center;text-anchor:middle;fill:#f9ffff;fill-opacity:1;stroke-width:0.26458332"
         id="path1148"
         inkscape:connector-curvature="0" />
      <path
         d="m 157.01515,-217.37088 q 0,-0.62442 0.26459,-1.16417 0.27516,-0.53975 0.889,-0.91016 0.61383,-0.381 1.47108,-0.381 0.92075,0 1.5875,0.52916 v -1.31233 h -0.16933 q -0.6985,0 -0.6985,-0.52917 0,-0.51858 0.6985,-0.51858 h 1.22766 v 5.54567 h 0.16934 q 0.6985,0 0.6985,0.52916 0,0.52917 -0.6985,0.52917 h -1.22767 v -0.37042 q -0.762,0.51859 -1.59808,0.51859 -1.25942,0 -1.93675,-0.74084 -0.67734,-0.74083 -0.67734,-1.72508 z m 4.21217,0.0212 q 0,-0.21167 -0.0741,-0.43392 -0.0741,-0.23283 -0.24342,-0.45508 -0.15875,-0.23284 -0.49742,-0.381 -0.32808,-0.14817 -0.77258,-0.14817 -0.4445,0 -0.77258,0.14817 -0.3175,0.14816 -0.48684,0.381 -0.15875,0.23283 -0.23283,0.45508 -0.0741,0.21167 -0.0741,0.41275 0,0.60325 0.43391,1.00542 0.4445,0.40216 1.143,0.40216 0.4445,0 0.77259,-0.14816 0.32808,-0.14817 0.48683,-0.381 0.16933,-0.23284 0.24342,-0.4445 0.0741,-0.22225 0.0741,-0.41275 z"
         style="font-style:normal;font-variant:normal;font-weight:bold;font-stretch:normal;font-family:'Tlwg Mono';-inkscape-font-specification:'Tlwg Mono Bold';text-align:center;text-anchor:middle;fill:#f9ffff;fill-opacity:1;stroke-width:0.26458332"
         id="path1150"
         inkscape:connector-curvature="0" />
      <path
         d="m 166.25027,-215.94213 q 0.56092,0 1.24884,-0.16933 0.68791,-0.17992 0.8255,-0.17992 0.21166,0 0.35983,0.15875 0.14817,0.14817 0.14817,0.37042 0,0.30691 -0.37042,0.47625 -0.35983,0.15875 -1.05833,0.27516 -0.68792,0.127 -1.24884,0.127 -1.22766,0 -2.01083,-0.68791 -0.78317,-0.68792 -0.78317,-1.76742 0,-1.04775 0.78317,-1.75683 0.79375,-0.71967 1.94733,-0.71967 1.18534,0 1.95792,0.71967 0.78317,0.71966 0.78317,1.80975 v 0.41275 h -4.318 q 0.35983,0.93133 1.73566,0.93133 z m -1.70391,-1.86267 h 3.1115 q -0.127,-0.43391 -0.55034,-0.68791 -0.42333,-0.26459 -1.00541,-0.26459 -0.58209,0 -1.016,0.26459 -0.42334,0.26458 -0.53975,0.68791 z"
         style="font-style:normal;font-variant:normal;font-weight:bold;font-stretch:normal;font-family:'Tlwg Mono';-inkscape-font-specification:'Tlwg Mono Bold';text-align:center;text-anchor:middle;fill:#f9ffff;fill-opacity:1;stroke-width:0.26458332"
         id="path1152"
         inkscape:connector-curvature="0" />
      <path
         d="m 169.70688,-217.37088 q 0,-0.62442 0.26458,-1.16417 0.27517,-0.53975 0.889,-0.91016 0.61384,-0.381 1.47109,-0.381 0.92075,0 1.5875,0.52916 v -1.31233 h -0.16934 q -0.6985,0 -0.6985,-0.52917 0,-0.51858 0.6985,-0.51858 h 1.22767 v 5.54567 h 0.16933 q 0.6985,0 0.6985,0.52916 0,0.52917 -0.6985,0.52917 h -1.22766 v -0.37042 q -0.762,0.51859 -1.59809,0.51859 -1.25941,0 -1.93675,-0.74084 -0.67733,-0.74083 -0.67733,-1.72508 z m 4.21217,0.0212 q 0,-0.21167 -0.0741,-0.43392 -0.0741,-0.23283 -0.24341,-0.45508 -0.15875,-0.23284 -0.49742,-0.381 -0.32808,-0.14817 -0.77258,-0.14817 -0.4445,0 -0.77259,0.14817 -0.3175,0.14816 -0.48683,0.381 -0.15875,0.23283 -0.23283,0.45508 -0.0741,0.21167 -0.0741,0.41275 0,0.60325 0.43392,1.00542 0.4445,0.40216 1.143,0.40216 0.4445,0 0.77258,-0.14816 0.32809,-0.14817 0.48684,-0.381 0.16933,-0.23284 0.24341,-0.4445 0.0741,-0.22225 0.0741,-0.41275 z"
         style="font-style:normal;font-variant:normal;font-weight:bold;font-stretch:normal;font-family:'Tlwg Mono';-inkscape-font-specification:'Tlwg Mono Bold';text-align:center;text-anchor:middle;fill:#f9ffff;fill-opacity:1;stroke-width:0.26458332"
         id="path1154"
         inkscape:connector-curvature="0" />
      <path
         d="m 178.97375,-214.89438 h -0.1905 q -0.28575,0 -0.49742,-0.20108 -0.20108,-0.21167 -0.20108,-0.49742 0,-0.28575 0.20108,-0.48683 0.21167,-0.21167 0.49742,-0.21167 h 0.1905 q 0.29633,0 0.49742,0.20108 0.20108,0.20109 0.20108,0.49742 0,0.29633 -0.20108,0.49742 -0.20109,0.20108 -0.49742,0.20108 z"
         style="font-style:normal;font-variant:normal;font-weight:bold;font-stretch:normal;font-family:'Tlwg Mono';-inkscape-font-specification:'Tlwg Mono Bold';text-align:center;text-anchor:middle;fill:#f9ffff;fill-opacity:1;stroke-width:0.26458332"
         id="path1156"
         inkscape:connector-curvature="0" />
      <path
         d="m 38.760631,-203.77976 v 1.60866 h 1.1684 q 0.237067,0 0.237067,0.16934 0,0.1778 -0.237067,0.1778 h -1.972733 q -0.2286,0 -0.2286,-0.1778 0,-0.16934 0.2286,-0.16934 h 0.4572 v -4.07246 h -0.4572 q -0.2286,0 -0.2286,-0.1778 0,-0.16934 0.2286,-0.16934 h 2.032 q 0.677333,0 1.134533,0.4064 0.465667,0.39794 0.465667,0.9906 0,0.59267 -0.499534,1.00754 -0.499533,0.4064 -1.2192,0.4064 z m 0,-0.34714 h 1.134533 q 0.550334,0 0.948267,-0.31326 0.397933,-0.31327 0.397933,-0.75354 0,-0.4318 -0.364066,-0.7366 -0.3556,-0.31326 -0.855134,-0.31326 h -1.261533 z"
         style="font-style:normal;font-variant:normal;font-weight:500;font-stretch:normal;font-size:8.46666622px;font-family:'Tlwg Mono';-inkscape-font-specification:'Tlwg Mono Medium';text-align:center;text-anchor:middle;fill:#f9ffff;fill-opacity:1;stroke-width:0.26458332"
         id="path1158"
         inkscape:connector-curvature="0" />
      <path
         d="m 44.540057,-205.35456 v 0.8636 q 0.5842,-0.5334 0.948267,-0.7366 0.364066,-0.21167 0.6858,-0.21167 0.338666,0 0.651933,0.26247 0.194733,0.16086 0.194733,0.26246 0,0.0762 -0.0508,0.127 -0.0508,0.0508 -0.127,0.0508 -0.06773,0 -0.135466,-0.0677 -0.296334,-0.28787 -0.5588,-0.28787 -0.287867,0 -0.601134,0.2032 -0.3048,0.2032 -1.007533,0.84667 v 1.87113 h 1.515533 q 0.2286,0 0.2286,0.1778 0,0.16934 -0.2286,0.16934 h -2.675466 q -0.2286,0 -0.2286,-0.1778 0,-0.16934 0.2286,-0.16934 h 0.8128 v -2.83633 h -0.635 q -0.2286,0 -0.2286,-0.1778 0,-0.16933 0.2286,-0.16933 z"
         style="font-style:normal;font-variant:normal;font-weight:500;font-stretch:normal;font-size:8.46666622px;font-family:'Tlwg Mono';-inkscape-font-specification:'Tlwg Mono Medium';text-align:center;text-anchor:middle;fill:#f9ffff;fill-opacity:1;stroke-width:0.26458332"
         id="path1160"
         inkscape:connector-curvature="0" />
      <path
         d="M 51.919683,-203.50883 H 48.39755 q 0.09313,0.66887 0.5588,1.07527 0.465666,0.39793 1.151466,0.39793 0.397934,0 0.8128,-0.127 0.414867,-0.127 0.668867,-0.3302 0.08467,-0.0593 0.135467,-0.0593 0.06773,0 0.110066,0.0508 0.0508,0.0508 0.0508,0.11854 0,0.22013 -0.6096,0.4572 -0.601133,0.23706 -1.176866,0.23706 -0.855134,0 -1.456267,-0.57573 -0.592667,-0.57573 -0.592667,-1.397 0,-0.77047 0.5588,-1.28693 0.5588,-0.52494 1.3716,-0.52494 0.6096,0 1.083734,0.3048 0.4826,0.3048 0.711199,0.82974 0.143934,0.33866 0.143934,0.82973 z m -3.522133,-0.34713 h 3.166533 q -0.1016,-0.57574 -0.5334,-0.92287 -0.4318,-0.34713 -1.049867,-0.34713 -0.618066,0 -1.0414,0.34713 -0.423333,0.33867 -0.541866,0.92287 z"
         style="font-style:normal;font-variant:normal;font-weight:500;font-stretch:normal;font-size:8.46666622px;font-family:'Tlwg Mono';-inkscape-font-specification:'Tlwg Mono Medium';text-align:center;text-anchor:middle;fill:#f9ffff;fill-opacity:1;stroke-width:0.26458332"
         id="path1162"
         inkscape:connector-curvature="0" />
      <path
         d="m 56.251309,-205.08363 v -0.0339 q 0,-0.23706 0.1778,-0.23706 0.169333,0 0.169333,0.23706 v 0.5842 q 0,0.2286 -0.169333,0.2286 -0.1524,0 -0.1778,-0.19473 -0.03387,-0.28787 -0.338667,-0.4572 -0.3048,-0.16933 -0.7874,-0.16933 -0.474133,0 -0.7874,0.18626 -0.313266,0.1778 -0.313266,0.44874 0,0.2286 0.270933,0.381 0.143933,0.0931 0.287867,0.127 0.143933,0.0254 0.694266,0.0847 0.728133,0.0847 1.100667,0.3302 0.423333,0.28787 0.423333,0.762 0,0.4826 -0.474133,0.80434 -0.465667,0.31326 -1.185333,0.31326 -0.8128,0 -1.329267,-0.4572 v 0.0931 q 0,0.2286 -0.169333,0.2286 -0.1778,0 -0.1778,-0.2286 v -0.70274 q 0,-0.2286 0.1778,-0.2286 0.169333,0 0.169333,0.18627 v 0.0593 q 0,0.28786 0.381,0.49953 0.381,0.2032 0.922867,0.2032 0.558799,0 0.931333,-0.22013 0.372533,-0.22014 0.372533,-0.5588 0,-0.3302 -0.372533,-0.5334 -0.296334,-0.16087 -0.9144,-0.2286 -0.795867,-0.0847 -1.100667,-0.27094 -0.389466,-0.254 -0.389466,-0.66886 0,-0.41487 0.4064,-0.6858 0.414866,-0.27094 1.0414,-0.27094 0.719666,0 1.159933,0.38947 z"
         style="font-style:normal;font-variant:normal;font-weight:500;font-stretch:normal;font-size:8.46666622px;font-family:'Tlwg Mono';-inkscape-font-specification:'Tlwg Mono Medium';text-align:center;text-anchor:middle;fill:#f9ffff;fill-opacity:1;stroke-width:0.26458332"
         id="path1164"
         inkscape:connector-curvature="0" />
      <path
         d="m 61.328001,-205.08363 v -0.0339 q 0,-0.23706 0.1778,-0.23706 0.169334,0 0.169334,0.23706 v 0.5842 q 0,0.2286 -0.169334,0.2286 -0.1524,0 -0.1778,-0.19473 -0.03387,-0.28787 -0.338666,-0.4572 -0.3048,-0.16933 -0.7874,-0.16933 -0.474134,0 -0.7874,0.18626 -0.313267,0.1778 -0.313267,0.44874 0,0.2286 0.270933,0.381 0.143934,0.0931 0.287867,0.127 0.143933,0.0254 0.694267,0.0847 0.728133,0.0847 1.100666,0.3302 0.423334,0.28787 0.423334,0.762 0,0.4826 -0.474134,0.80434 -0.465666,0.31326 -1.185333,0.31326 -0.8128,0 -1.329267,-0.4572 v 0.0931 q 0,0.2286 -0.169333,0.2286 -0.1778,0 -0.1778,-0.2286 v -0.70274 q 0,-0.2286 0.1778,-0.2286 0.169333,0 0.169333,0.18627 v 0.0593 q 0,0.28786 0.381,0.49953 0.381,0.2032 0.922867,0.2032 0.5588,0 0.931333,-0.22013 0.372534,-0.22014 0.372534,-0.5588 0,-0.3302 -0.372534,-0.5334 -0.296333,-0.16087 -0.9144,-0.2286 -0.795866,-0.0847 -1.100666,-0.27094 -0.389467,-0.254 -0.389467,-0.66886 0,-0.41487 0.4064,-0.6858 0.414867,-0.27094 1.0414,-0.27094 0.719667,0 1.159933,0.38947 z"
         style="font-style:normal;font-variant:normal;font-weight:500;font-stretch:normal;font-size:8.46666622px;font-family:'Tlwg Mono';-inkscape-font-specification:'Tlwg Mono Medium';text-align:center;text-anchor:middle;fill:#f9ffff;fill-opacity:1;stroke-width:0.26458332"
         id="path1166"
         inkscape:connector-curvature="0" />
      <path
         d="m 71.870853,-206.11656 v -0.24554 q 0,-0.2286 0.1778,-0.2286 0.169333,0 0.169333,0.2286 v 0.94827 q 0,0.2286 -0.1778,0.2286 -0.152399,0 -0.169333,-0.2032 -0.0254,-0.38947 -0.465666,-0.67733 -0.4318,-0.28787 -0.999067,-0.28787 -0.702733,0 -1.202267,0.54187 -0.499533,0.5334 -0.499533,1.28693 v 0.60113 q 0,0.762 0.550333,1.32927 0.550334,0.5588 1.2954,0.5588 0.440267,0 0.7874,-0.1778 0.347134,-0.1778 0.6858,-0.5842 0.0762,-0.0847 0.1524,-0.0847 0.169333,0 0.169333,0.16087 0,0.13547 -0.321733,0.4318 -0.643466,0.60113 -1.4732,0.60113 -0.8636,0 -1.532466,-0.6604 -0.6604,-0.66886 -0.6604,-1.524 v -0.70273 q 0,-0.38947 0.160866,-0.79587 0.169334,-0.41486 0.440267,-0.70273 0.5842,-0.62653 1.4478,-0.62653 0.855133,0 1.464733,0.5842 z"
         style="font-style:normal;font-variant:normal;font-weight:500;font-stretch:normal;font-size:8.46666622px;font-family:'Tlwg Mono';-inkscape-font-specification:'Tlwg Mono Medium';text-align:center;text-anchor:middle;fill:#f9ffff;fill-opacity:1;stroke-width:0.26458332"
         id="path1168"
         inkscape:connector-curvature="0" />
      <path
         d="m 74.475281,-205.35456 h 1.862667 q 0.2286,0 0.2286,0.16933 0,0.1778 -0.2286,0.1778 h -1.862667 v 2.2606 q 0,0.32173 0.254,0.51647 0.254,0.19473 0.694267,0.19473 0.3556,0 0.753533,-0.0931 0.4064,-0.1016 0.651933,-0.24554 0.08467,-0.0508 0.135467,-0.0508 0.05927,0 0.110067,0.0508 0.0508,0.0508 0.0508,0.11854 0,0.18626 -0.575734,0.381 -0.567266,0.18626 -1.109133,0.18626 -0.601133,0 -0.956733,-0.2794 -0.3556,-0.28786 -0.3556,-0.762 v -2.27753 h -0.626533 q -0.237067,0 -0.237067,-0.1778 0,-0.16933 0.237067,-0.16933 h 0.626533 v -1.00754 q 0,-0.2286 0.1778,-0.2286 0.169333,0 0.169333,0.2286 z"
         style="font-style:normal;font-variant:normal;font-weight:500;font-stretch:normal;font-size:8.46666622px;font-family:'Tlwg Mono';-inkscape-font-specification:'Tlwg Mono Medium';text-align:center;text-anchor:middle;fill:#f9ffff;fill-opacity:1;stroke-width:0.26458332"
         id="path1170"
         inkscape:connector-curvature="0" />
      <path
         d="m 80.076905,-205.35456 v 0.8636 q 0.5842,-0.5334 0.948267,-0.7366 0.364066,-0.21167 0.6858,-0.21167 0.338666,0 0.651933,0.26247 0.194733,0.16086 0.194733,0.26246 0,0.0762 -0.0508,0.127 -0.0508,0.0508 -0.127,0.0508 -0.06773,0 -0.135466,-0.0677 -0.296334,-0.28787 -0.5588,-0.28787 -0.287867,0 -0.601134,0.2032 -0.3048,0.2032 -1.007533,0.84667 v 1.87113 h 1.515533 q 0.2286,0 0.2286,0.1778 0,0.16934 -0.2286,0.16934 h -2.675466 q -0.2286,0 -0.2286,-0.1778 0,-0.16934 0.2286,-0.16934 h 0.8128 v -2.83633 h -0.635 q -0.2286,0 -0.2286,-0.1778 0,-0.16933 0.2286,-0.16933 z"
         style="font-style:normal;font-variant:normal;font-weight:500;font-stretch:normal;font-size:8.46666622px;font-family:'Tlwg Mono';-inkscape-font-specification:'Tlwg Mono Medium';text-align:center;text-anchor:middle;fill:#f9ffff;fill-opacity:1;stroke-width:0.26458332"
         id="path1172"
         inkscape:connector-curvature="0" />
      <path
         d="m 85.763196,-206.93783 v 4.76673 h 1.354666 q 0.237067,0 0.237067,0.16934 0,0.1778 -0.237067,0.1778 h -3.056466 q -0.2286,0 -0.2286,-0.1778 0,-0.16934 0.2286,-0.16934 h 1.354666 v -4.4196 h -0.9906 q -0.2286,0 -0.2286,-0.1778 0,-0.16933 0.2286,-0.16933 z"
         style="font-style:normal;font-variant:normal;font-weight:500;font-stretch:normal;font-size:8.46666622px;font-family:'Tlwg Mono';-inkscape-font-specification:'Tlwg Mono Medium';text-align:center;text-anchor:middle;fill:#f9ffff;fill-opacity:1;stroke-width:0.26458332"
         id="path1174"
         inkscape:connector-curvature="0" />
      <path
         d="m 90.83989,-204.03376 v 1.71026 q 0,0.2286 -0.169333,0.2286 -0.1778,0 -0.1778,-0.2286 v -1.71026 h -1.524 q -0.2286,0 -0.2286,-0.1778 0,-0.16934 0.2286,-0.16934 h 1.524 v -1.7018 q 0,-0.2286 0.1778,-0.2286 0.169333,0 0.169333,0.2286 v 1.7018 h 1.524 q 0.237067,0 0.237067,0.16934 0,0.1778 -0.237067,0.1778 z"
         style="font-style:normal;font-variant:normal;font-weight:500;font-stretch:normal;font-size:8.46666622px;font-family:'Tlwg Mono';-inkscape-font-specification:'Tlwg Mono Medium';text-align:center;text-anchor:middle;fill:#f9ffff;fill-opacity:1;stroke-width:0.26458332"
         id="path1176"
         inkscape:connector-curvature="0" />
      <path
         d="m 94.604251,-204.1269 v 1.9558 h 2.658534 v -1.00753 q 0,-0.2286 0.1778,-0.2286 0.169333,0 0.169333,0.2286 v 1.35467 h -3.81 q -0.2286,0 -0.2286,-0.1778 0,-0.16934 0.2286,-0.16934 h 0.4572 v -4.07246 h -0.4572 q -0.2286,0 -0.2286,-0.1778 0,-0.16934 0.2286,-0.16934 h 3.6322 v 1.17687 q 0,0.2286 -0.1778,0.2286 -0.169333,0 -0.169333,-0.2286 v -0.82973 h -2.480734 v 1.76953 h 1.227667 v -0.381 q 0,-0.2286 0.1778,-0.2286 0.169333,0 0.169333,0.2286 v 1.10913 q 0,0.2286 -0.169333,0.2286 -0.1778,0 -0.1778,-0.2286 v -0.381 z"
         style="font-style:normal;font-variant:normal;font-weight:500;font-stretch:normal;font-size:8.46666622px;font-family:'Tlwg Mono';-inkscape-font-specification:'Tlwg Mono Medium';text-align:center;text-anchor:middle;fill:#f9ffff;fill-opacity:1;stroke-width:0.26458332"
         id="path1178"
         inkscape:connector-curvature="0" />
      <path
         d="m 104.93543,-205.35456 h 1.86267 q 0.2286,0 0.2286,0.16933 0,0.1778 -0.2286,0.1778 h -1.86267 v 2.2606 q 0,0.32173 0.254,0.51647 0.254,0.19473 0.69427,0.19473 0.3556,0 0.75353,-0.0931 0.4064,-0.1016 0.65194,-0.24554 0.0847,-0.0508 0.13546,-0.0508 0.0593,0 0.11007,0.0508 0.0508,0.0508 0.0508,0.11854 0,0.18626 -0.57573,0.381 -0.56727,0.18626 -1.10914,0.18626 -0.60113,0 -0.95673,-0.2794 -0.3556,-0.28786 -0.3556,-0.762 v -2.27753 h -0.62653 q -0.23707,0 -0.23707,-0.1778 0,-0.16933 0.23707,-0.16933 h 0.62653 v -1.00754 q 0,-0.2286 0.1778,-0.2286 0.16933,0 0.16933,0.2286 z"
         style="font-style:normal;font-variant:normal;font-weight:500;font-stretch:normal;font-size:8.46666622px;font-family:'Tlwg Mono';-inkscape-font-specification:'Tlwg Mono Medium';text-align:center;text-anchor:middle;fill:#f9ffff;fill-opacity:1;stroke-width:0.26458332"
         id="path1180"
         inkscape:connector-curvature="0" />
      <path
         d="m 110.97733,-205.4731 q 0.8128,0 1.3716,0.5588 0.5588,0.55034 0.5588,1.35467 0,0.77893 -0.56727,1.32927 -0.56726,0.54186 -1.36313,0.54186 -0.80433,0 -1.3716,-0.55033 -0.5588,-0.55033 -0.5588,-1.3462 0,-0.77893 0.5588,-1.32927 0.56727,-0.5588 1.3716,-0.5588 z m 0,0.34714 q -0.6604,0 -1.12607,0.44873 -0.4572,0.44873 -0.4572,1.0922 0,0.64347 0.4572,1.10067 0.46567,0.44873 1.12607,0.44873 0.65193,0 1.1176,-0.44873 0.46567,-0.44874 0.46567,-1.07527 0,-0.66887 -0.4572,-1.1176 -0.4572,-0.44873 -1.12607,-0.44873 z"
         style="font-style:normal;font-variant:normal;font-weight:500;font-stretch:normal;font-size:8.46666622px;font-family:'Tlwg Mono';-inkscape-font-specification:'Tlwg Mono Medium';text-align:center;text-anchor:middle;fill:#f9ffff;fill-opacity:1;stroke-width:0.26458332"
         id="path1182"
         inkscape:connector-curvature="0" />
      <path
         d="m 122.31605,-204.60103 v -0.75353 h 0.80433 q 0.2286,0 0.2286,0.16933 0,0.1778 -0.2286,0.1778 h -0.4572 v 3.42053 q 0,0.54187 -0.4064,0.9398 -0.4064,0.39794 -0.9906,0.39794 h -0.9652 q -0.2286,0 -0.2286,-0.1778 0,-0.16934 0.2286,-0.16934 h 0.98213 q 0.4318,0 0.72814,-0.3048 0.3048,-0.3048 0.3048,-0.7366 v -0.92286 q -0.5588,0.87206 -1.4478,0.87206 -0.71967,0 -1.23614,-0.5588 -0.508,-0.5588 -0.508,-1.33773 0,-0.77893 0.508,-1.32927 0.51647,-0.5588 1.23614,-0.5588 0.89746,0 1.4478,0.87207 z m -1.4224,-0.52493 q -0.59267,0 -1.00754,0.4572 -0.41486,0.44873 -0.41486,1.08373 0,0.64347 0.41486,1.10067 0.41487,0.44873 1.00754,0.44873 0.59266,0 1.00753,-0.44873 0.41487,-0.4572 0.41487,-1.08374 0,-0.65193 -0.41487,-1.10066 -0.4064,-0.4572 -1.00753,-0.4572 z"
         style="font-style:normal;font-variant:normal;font-weight:500;font-stretch:normal;font-size:8.46666622px;font-family:'Tlwg Mono';-inkscape-font-specification:'Tlwg Mono Medium';text-align:center;text-anchor:middle;fill:#f9ffff;fill-opacity:1;stroke-width:0.26458332"
         id="path1184"
         inkscape:connector-curvature="0" />
      <path
         d="m 128.07007,-203.50883 h -3.52213 q 0.0931,0.66887 0.5588,1.07527 0.46566,0.39793 1.15146,0.39793 0.39794,0 0.8128,-0.127 0.41487,-0.127 0.66887,-0.3302 0.0847,-0.0593 0.13547,-0.0593 0.0677,0 0.11006,0.0508 0.0508,0.0508 0.0508,0.11854 0,0.22013 -0.6096,0.4572 -0.60113,0.23706 -1.17686,0.23706 -0.85514,0 -1.45627,-0.57573 -0.59267,-0.57573 -0.59267,-1.397 0,-0.77047 0.5588,-1.28693 0.5588,-0.52494 1.3716,-0.52494 0.6096,0 1.08374,0.3048 0.4826,0.3048 0.7112,0.82974 0.14393,0.33866 0.14393,0.82973 z m -3.52213,-0.34713 h 3.16653 q -0.1016,-0.57574 -0.5334,-0.92287 -0.4318,-0.34713 -1.04987,-0.34713 -0.61806,0 -1.0414,0.34713 -0.42333,0.33867 -0.54186,0.92287 z"
         style="font-style:normal;font-variant:normal;font-weight:500;font-stretch:normal;font-size:8.46666622px;font-family:'Tlwg Mono';-inkscape-font-specification:'Tlwg Mono Medium';text-align:center;text-anchor:middle;fill:#f9ffff;fill-opacity:1;stroke-width:0.26458332"
         id="path1186"
         inkscape:connector-curvature="0" />
      <path
         d="m 130.31889,-205.35456 h 1.86267 q 0.2286,0 0.2286,0.16933 0,0.1778 -0.2286,0.1778 h -1.86267 v 2.2606 q 0,0.32173 0.254,0.51647 0.254,0.19473 0.69427,0.19473 0.3556,0 0.75353,-0.0931 0.4064,-0.1016 0.65194,-0.24554 0.0847,-0.0508 0.13546,-0.0508 0.0593,0 0.11007,0.0508 0.0508,0.0508 0.0508,0.11854 0,0.18626 -0.57573,0.381 -0.56727,0.18626 -1.10914,0.18626 -0.60113,0 -0.95673,-0.2794 -0.3556,-0.28786 -0.3556,-0.762 v -2.27753 h -0.62653 q -0.23707,0 -0.23707,-0.1778 0,-0.16933 0.23707,-0.16933 h 0.62653 v -1.00754 q 0,-0.2286 0.1778,-0.2286 0.16933,0 0.16933,0.2286 z"
         style="font-style:normal;font-variant:normal;font-weight:500;font-stretch:normal;font-size:8.46666622px;font-family:'Tlwg Mono';-inkscape-font-specification:'Tlwg Mono Medium';text-align:center;text-anchor:middle;fill:#f9ffff;fill-opacity:1;stroke-width:0.26458332"
         id="path1188"
         inkscape:connector-curvature="0" />
      <path
         d="m 142.55508,-205.08363 v -0.0339 q 0,-0.23706 0.1778,-0.23706 0.16934,0 0.16934,0.23706 v 0.5842 q 0,0.2286 -0.16934,0.2286 -0.1524,0 -0.1778,-0.19473 -0.0339,-0.28787 -0.33866,-0.4572 -0.3048,-0.16933 -0.7874,-0.16933 -0.47414,0 -0.7874,0.18626 -0.31327,0.1778 -0.31327,0.44874 0,0.2286 0.27093,0.381 0.14394,0.0931 0.28787,0.127 0.14393,0.0254 0.69427,0.0847 0.72813,0.0847 1.10066,0.3302 0.42334,0.28787 0.42334,0.762 0,0.4826 -0.47414,0.80434 -0.46566,0.31326 -1.18533,0.31326 -0.8128,0 -1.32927,-0.4572 v 0.0931 q 0,0.2286 -0.16933,0.2286 -0.1778,0 -0.1778,-0.2286 v -0.70274 q 0,-0.2286 0.1778,-0.2286 0.16933,0 0.16933,0.18627 v 0.0593 q 0,0.28786 0.381,0.49953 0.381,0.2032 0.92287,0.2032 0.5588,0 0.93133,-0.22013 0.37254,-0.22014 0.37254,-0.5588 0,-0.3302 -0.37254,-0.5334 -0.29633,-0.16087 -0.9144,-0.2286 -0.79586,-0.0847 -1.10066,-0.27094 -0.38947,-0.254 -0.38947,-0.66886 0,-0.41487 0.4064,-0.6858 0.41487,-0.27094 1.0414,-0.27094 0.71967,0 1.15993,0.38947 z"
         style="font-style:normal;font-variant:normal;font-weight:500;font-stretch:normal;font-size:8.46666622px;font-family:'Tlwg Mono';-inkscape-font-specification:'Tlwg Mono Medium';text-align:center;text-anchor:middle;fill:#f9ffff;fill-opacity:1;stroke-width:0.26458332"
         id="path1190"
         inkscape:connector-curvature="0" />
      <path
         d="m 145.54897,-205.35456 h 1.86267 q 0.2286,0 0.2286,0.16933 0,0.1778 -0.2286,0.1778 h -1.86267 v 2.2606 q 0,0.32173 0.254,0.51647 0.254,0.19473 0.69427,0.19473 0.3556,0 0.75353,-0.0931 0.4064,-0.1016 0.65194,-0.24554 0.0847,-0.0508 0.13546,-0.0508 0.0593,0 0.11007,0.0508 0.0508,0.0508 0.0508,0.11854 0,0.18626 -0.57573,0.381 -0.56727,0.18626 -1.10914,0.18626 -0.60113,0 -0.95673,-0.2794 -0.3556,-0.28786 -0.3556,-0.762 v -2.27753 h -0.62653 q -0.23707,0 -0.23707,-0.1778 0,-0.16933 0.23707,-0.16933 h 0.62653 v -1.00754 q 0,-0.2286 0.1778,-0.2286 0.16933,0 0.16933,0.2286 z"
         style="font-style:normal;font-variant:normal;font-weight:500;font-stretch:normal;font-size:8.46666622px;font-family:'Tlwg Mono';-inkscape-font-specification:'Tlwg Mono Medium';text-align:center;text-anchor:middle;fill:#f9ffff;fill-opacity:1;stroke-width:0.26458332"
         id="path1192"
         inkscape:connector-curvature="0" />
      <path
         d="m 152.5984,-201.82396 v -0.56727 q -0.75353,0.70273 -1.61713,0.70273 -0.59266,0 -0.95673,-0.29633 -0.36407,-0.3048 -0.36407,-0.7874 0,-0.55033 0.49107,-0.889 0.49953,-0.34713 1.2954,-0.34713 0.49953,0 1.15146,0.1778 v -0.60114 q 0,-0.31326 -0.28786,-0.49953 -0.28787,-0.19473 -0.75353,-0.19473 -0.37254,0 -1.20227,0.254 -0.0677,0.0169 -0.0847,0.0169 -0.0677,0 -0.11853,-0.0508 -0.0423,-0.0508 -0.0423,-0.11853 0,-0.127 0.14393,-0.1778 0.7874,-0.27094 1.32927,-0.27094 0.59266,0 0.97366,0.29634 0.38947,0.29633 0.38947,0.74506 v 2.2606 h 0.4572 q 0.2286,0 0.2286,0.16934 0,0.1778 -0.2286,0.1778 z m 0,-0.94827 v -0.762 q -0.50799,-0.127 -1.08373,-0.127 -0.66886,0 -1.0922,0.254 -0.41486,0.24553 -0.41486,0.64347 0,0.3302 0.26246,0.5334 0.26247,0.19473 0.70274,0.19473 0.44873,0 0.82126,-0.16933 0.381,-0.16934 0.80433,-0.56727 z"
         style="font-style:normal;font-variant:normal;font-weight:500;font-stretch:normal;font-size:8.46666622px;font-family:'Tlwg Mono';-inkscape-font-specification:'Tlwg Mono Medium';text-align:center;text-anchor:middle;fill:#f9ffff;fill-opacity:1;stroke-width:0.26458332"
         id="path1194"
         inkscape:connector-curvature="0" />
      <path
         d="m 156.2273,-205.35456 v 0.8636 q 0.5842,-0.5334 0.94826,-0.7366 0.36407,-0.21167 0.6858,-0.21167 0.33867,0 0.65194,0.26247 0.19473,0.16086 0.19473,0.26246 0,0.0762 -0.0508,0.127 -0.0508,0.0508 -0.127,0.0508 -0.0677,0 -0.13547,-0.0677 -0.29633,-0.28787 -0.5588,-0.28787 -0.28786,0 -0.60113,0.2032 -0.3048,0.2032 -1.00753,0.84667 v 1.87113 h 1.51553 q 0.2286,0 0.2286,0.1778 0,0.16934 -0.2286,0.16934 h -2.67547 q -0.2286,0 -0.2286,-0.1778 0,-0.16934 0.2286,-0.16934 h 0.8128 v -2.83633 h -0.635 q -0.2286,0 -0.2286,-0.1778 0,-0.16933 0.2286,-0.16933 z"
         style="font-style:normal;font-variant:normal;font-weight:500;font-stretch:normal;font-size:8.46666622px;font-family:'Tlwg Mono';-inkscape-font-specification:'Tlwg Mono Medium';text-align:center;text-anchor:middle;fill:#f9ffff;fill-opacity:1;stroke-width:0.26458332"
         id="path1196"
         inkscape:connector-curvature="0" />
      <path
         d="m 160.77905,-205.35456 h 1.86267 q 0.2286,0 0.2286,0.16933 0,0.1778 -0.2286,0.1778 h -1.86267 v 2.2606 q 0,0.32173 0.254,0.51647 0.254,0.19473 0.69427,0.19473 0.3556,0 0.75353,-0.0931 0.4064,-0.1016 0.65194,-0.24554 0.0847,-0.0508 0.13546,-0.0508 0.0593,0 0.11007,0.0508 0.0508,0.0508 0.0508,0.11854 0,0.18626 -0.57573,0.381 -0.56727,0.18626 -1.10914,0.18626 -0.60113,0 -0.95673,-0.2794 -0.3556,-0.28786 -0.3556,-0.762 v -2.27753 h -0.62653 q -0.23707,0 -0.23707,-0.1778 0,-0.16933 0.23707,-0.16933 h 0.62653 v -1.00754 q 0,-0.2286 0.1778,-0.2286 0.16933,0 0.16933,0.2286 z"
         style="font-style:normal;font-variant:normal;font-weight:500;font-stretch:normal;font-size:8.46666622px;font-family:'Tlwg Mono';-inkscape-font-specification:'Tlwg Mono Medium';text-align:center;text-anchor:middle;fill:#f9ffff;fill-opacity:1;stroke-width:0.26458332"
         id="path1198"
         inkscape:connector-curvature="0" />
      <path
         d="m 168.68361,-203.50883 h -3.52213 q 0.0931,0.66887 0.5588,1.07527 0.46566,0.39793 1.15146,0.39793 0.39794,0 0.8128,-0.127 0.41487,-0.127 0.66887,-0.3302 0.0847,-0.0593 0.13547,-0.0593 0.0677,0 0.11006,0.0508 0.0508,0.0508 0.0508,0.11854 0,0.22013 -0.6096,0.4572 -0.60113,0.23706 -1.17686,0.23706 -0.85514,0 -1.45627,-0.57573 -0.59267,-0.57573 -0.59267,-1.397 0,-0.77047 0.5588,-1.28693 0.5588,-0.52494 1.3716,-0.52494 0.6096,0 1.08374,0.3048 0.4826,0.3048 0.7112,0.82974 0.14393,0.33866 0.14393,0.82973 z m -3.52213,-0.34713 h 3.16653 q -0.1016,-0.57574 -0.5334,-0.92287 -0.4318,-0.34713 -1.04987,-0.34713 -0.61806,0 -1.0414,0.34713 -0.42333,0.33867 -0.54186,0.92287 z"
         style="font-style:normal;font-variant:normal;font-weight:500;font-stretch:normal;font-size:8.46666622px;font-family:'Tlwg Mono';-inkscape-font-specification:'Tlwg Mono Medium';text-align:center;text-anchor:middle;fill:#f9ffff;fill-opacity:1;stroke-width:0.26458332"
         id="path1200"
         inkscape:connector-curvature="0" />
      <path
         d="m 173.6079,-206.93783 v 4.76673 h 0.4572 q 0.2286,0 0.2286,0.16934 0,0.1778 -0.2286,0.1778 h -0.80433 v -0.75354 q -0.60114,0.889 -1.54094,0.889 -0.75353,0 -1.2954,-0.5588 -0.5334,-0.5588 -0.5334,-1.33773 0,-0.77893 0.5334,-1.32927 0.54187,-0.5588 1.2954,-0.5588 0.93134,0 1.54094,0.88054 v -1.99814 h -0.4572 q -0.2286,0 -0.2286,-0.1778 0,-0.16933 0.2286,-0.16933 z m -1.86267,1.81187 q -0.62653,0 -1.0668,0.44873 -0.44026,0.44873 -0.44026,1.0922 0,0.65193 0.44026,1.10067 0.44027,0.44873 1.07527,0.44873 0.62653,0 1.0668,-0.44873 0.44027,-0.44874 0.44027,-1.08374 0,-0.6604 -0.44027,-1.10913 -0.4318,-0.44873 -1.07527,-0.44873 z"
         style="font-style:normal;font-variant:normal;font-weight:500;font-stretch:normal;font-size:8.46666622px;font-family:'Tlwg Mono';-inkscape-font-specification:'Tlwg Mono Medium';text-align:center;text-anchor:middle;fill:#f9ffff;fill-opacity:1;stroke-width:0.26458332"
         id="path1202"
         inkscape:connector-curvature="0" />
    </g>
  </g>
</svg>
